<?xml version="1.0" encoding="utf-8"?>
<!-- Generator: Adobe Illustrator 27.9.0, SVG Export Plug-In . SVG Version: 6.00 Build 0)  -->
<svg version="1.1" id="Calque_1" xmlns="http://www.w3.org/2000/svg" xmlns:xlink="http://www.w3.org/1999/xlink" x="0px" y="0px"
	 viewBox="0 0 1920 1080" style="enable-background:new 0 0 1920 1080;" xml:space="preserve">
<style type="text/css">
	.st0{fill:#B4AA9E;}
	.st1{fill:#6998AD;}
	.st2{fill:#FEBB8E;}
</style>
<g>
	<path class="st0" d="M1287.81,476.18c-1.12,2.4-2.23,4.79-3.35,7.2c-118.95,118.66-236.58,238.7-357.9,354.89
		c-26.32,25.21-64,44.58-99.65,52.87c-97.37,22.65-192.35-57.07-192.74-155.2c-0.17-44.02-1.66-88.03-2.55-132.04
		c1.11-2.39,2.22-4.78,3.32-7.16c122.82-123.28,245.54-246.66,368.52-369.78c42.61-42.66,121.46-53.74,185.42-26.88
		c66.59,27.97,96.99,72.35,97.27,140.93C1286.35,386.05,1287.24,431.12,1287.81,476.18z"/>
	<path class="st1" d="M631.63,603.89c0.89,44.01,2.37,88.03,2.55,132.04c0.39,98.13,95.36,177.85,192.74,155.2
		c35.65-8.29,73.33-27.66,99.65-52.87c121.31-116.19,238.94-236.22,357.9-354.89c0.08,122.82,2.68,245.71-0.58,368.45
		c-2.47,93.17-80.8,174.6-180.43,177.38c-172.94,4.81-346.29,3.53-519.19-2.84c-93.55-3.44-162.52-88.35-156.33-179.59
		c1.55-22.83,13.16-49.28,28.74-66.09C513.01,719.91,573.01,662.54,631.63,603.89z"/>
	<path class="st2" d="M1287.81,476.18c-0.57-45.06-1.46-90.13-1.65-135.19c-0.28-68.59-30.68-112.97-97.27-140.93
		c-63.96-26.86-142.81-15.78-185.42,26.88C880.5,350.07,757.77,473.45,634.95,596.72c-0.19-119.82-2.19-239.68-0.03-359.45
		c1.9-105.7,87.57-188.39,192.92-188.84c161.84-0.69,323.7-1,485.53,0.75c103.16,1.12,186.22,86.88,178.6,183.48
		c-1.7,21.51-10.15,46.94-24.42,62.23C1409.53,357.08,1348.03,416.04,1287.81,476.18z"/>
</g>
</svg>
